<svg xmlns="http://www.w3.org/2000/svg" viewBox="0 0 1915.1 1080"><defs><style>.cls-1{isolation:isolate;}.cls-2{fill:#444;}.cls-11,.cls-3{fill:#8183c3;}.cls-15,.cls-3{mix-blend-mode:screen;}.cls-4{fill:none;}.cls-5{fill:#b5ff93;}.cls-6{fill:#76a85f;}.cls-7{fill:#072136;}.cls-8{fill:#072d4a;}.cls-9{fill:#0d395e;}.cls-10{fill:#d1d3d4;}.cls-12{fill:#07243d;}.cls-13{fill:#fff;}.cls-14{fill:#54557c;}.cls-16{fill:#105187;}.cls-17{fill:#a7a9ac;}.cls-18{fill:#e7e9ec;}.cls-19{fill:#f0f1d5;}</style></defs><g class="cls-1"><g id="Layer_1" data-name="Layer 1"><path class="cls-2" d="M1639.89,777.54l-16.43,19.87,6.66-25.4-24.84-5.86,26.19-4.15-.12-29.87,13.17,22.38s26.67-9.4,25-6.8-16.58,22.2-16.58,22.2l11.86,20.52Z" transform="translate(-4.9)"/><path class="cls-3" d="M1571.88,453.38c-175.65-26.78-220.15,64.79-340.13,112.52S867.68,475.51,587.42,371.16c-214.85-80-402.63.86-532.4,72.12a105.88,105.88,0,0,0,11.82,12S18.5,567.84,17.7,670.29c-.18,24.06,2.39,45.05,7.05,63.38,164.51,2.36,341-61.33,471.54-154.22C644.42,474,688.92,682.24,957.22,800.26c132.62,58.34,423.15,133,600,54.18,171-76.24,138.81-206.27,278.19-239.5C1875.31,605.42,1747.54,480.17,1571.88,453.38Z" transform="translate(-4.9)"/><path class="cls-3" d="M1838.8,593.69s102.12-155.26,77.32-283.39c-82.31,44.83-165.85,70.74-326.67,52.47C1345.18,335,1233.86,249.42,1102,299.4,976.45,347,809,430.94,715.61,374.08S510.56,196.92,305.3,233c-98.63,17.35-170-39.34-209-80.25C2.68,234.45-4.1,376.74,58.92,434c0,0-1.88,4.59-4.88,12.76,207.54,82.09,348.76-58.26,460.06-14.7C649.82,485.2,396.39,743,713,783.59c420,53.81,698.83-280.51,833-250.62,114.32,25.47,215.38,184,373.76,231.81C1918,676.88,1838.8,593.69,1838.8,593.69Z" transform="translate(-4.9)"/><rect class="cls-4" width="1911.1" height="1080"/><path class="cls-5" d="M1112.94,521.94s11.57,125.76-37.53,189.47-243.06,136.3-243.06,136.3l-14.76-19.58s123.74-48.23,161.28-121.6,9.83-175.24,9.83-175.24Z" transform="translate(-4.9)"/><path class="cls-6" d="M999.35,682.77c17.34-73.4,61.79-115.95,74.12-122.29l-4.91-35.2-79.86,6s27.7,101.86-9.83,175.24-161.28,121.6-161.28,121.6l14.76,19.58S982,756.16,999.35,682.77Z" transform="translate(-4.9)"/><path class="cls-7" d="M910,531.6l-120.58,9.09-18.86,33.43S811,643.9,868.79,700.69l36.56-11.92L946.51,563.1Z" transform="translate(-4.9)"/><path class="cls-8" d="M868.79,700.69l36.56-11.92c-49.68-51-116-148.08-116-148.08l-18.86,33.43S811,643.9,868.79,700.69Z" transform="translate(-4.9)"/><path class="cls-7" d="M793.71,610,814.8,585.2c-9.62,1.77-22.72,10.39-28.24,14.26C788.74,602.74,791.13,606.26,793.71,610Z" transform="translate(-4.9)"/><path class="cls-7" d="M873.3,662.78c-5.93,4.46-22,11.15-27.74,13.46,2.4,2.69,4.85,5.39,7.34,8.07C863.49,676,873.3,662.78,873.3,662.78Z" transform="translate(-4.9)"/><path class="cls-7" d="M844.56,624.67l-29.23,15q3.45,4.5,7.13,9.13Z" transform="translate(-4.9)"/><path class="cls-9" d="M905.34,541.3,822.4,578.76s64.34-25.56,89.36-29.66Z" transform="translate(-4.9)"/><path class="cls-9" d="M929.61,575.84s-21.68,55.48-45.68,80.52c0,0,31.58-62.41,41.09-84.71Z" transform="translate(-4.9)"/><path class="cls-9" d="M915.73,559.09s-51.3,47.57-64,58.57c0,0,55.5-39.88,67.62-52.59S915.73,559.09,915.73,559.09Z" transform="translate(-4.9)"/><path class="cls-10" d="M1362,191.13s-196,21.81-295.52,85.13S870.9,504.83,870.9,504.83L952.49,613s165.65-54.46,258.82-150.32S1365.3,223.85,1362,191.13Z" transform="translate(-4.9)"/><path class="cls-11" d="M1211.34,307.29c10.35,11.8,41.63,59.7,2.13,91.6-36.35,29.35-72,19.12-93.39-9.25-13-17.27-27.37-60.67,14.93-92.57C1170.39,270.39,1204.49,299.48,1211.34,307.29Z" transform="translate(-4.9)"/><path class="cls-12" d="M1201.36,319c6.73,7.6,31.83,44.53,1.6,68.94-27.82,22.47-55.11,14.64-71.49-7.08-10-13.22-21-46.44,11.43-70.85C1168.11,291,1195.43,312.3,1201.36,319Z" transform="translate(-4.9)"/><path class="cls-13" d="M1200.79,355.61c.44,17.06-8.93,27.4-17.53,24.16-9.17-3.46-12-20.54-7.87-35.27C1179.82,328.76,1199.75,315.54,1200.79,355.61Z" transform="translate(-4.9)"/><path class="cls-14" d="M1116.9,346.61c1.21,1.61,1.32,3.13-.45,4.68a3.48,3.48,0,1,1-4.44-5.35A3.47,3.47,0,0,1,1116.9,346.61Z" transform="translate(-4.9)"/><path class="cls-14" d="M1184.65,295.52c1.21,1.61,1.32,3.14-.45,4.68a3.48,3.48,0,1,1-4.44-5.34A3.46,3.46,0,0,1,1184.65,295.52Z" transform="translate(-4.9)"/><path class="cls-14" d="M1228.23,353.31c1.21,1.61,1.31,3.14-.46,4.68a3.48,3.48,0,1,1-4.43-5.34A3.47,3.47,0,0,1,1228.23,353.31Z" transform="translate(-4.9)"/><path class="cls-14" d="M1161.23,405.4c1.21,1.61,1.32,3.14-.45,4.68a3.48,3.48,0,1,1-4.44-5.35A3.47,3.47,0,0,1,1161.23,405.4Z" transform="translate(-4.9)"/><g class="cls-15"><path class="cls-16" d="M1153.05,347.61c2.6,3.45,2.82,6.73-1,10s-8.53,2.38-10.91-.77-2.61-7.69,1.39-10.7A7.45,7.45,0,0,1,1153.05,347.61Z" transform="translate(-4.9)"/></g><path class="cls-17" d="M957.24,611c-61.66-89.13-36-105.74,27.06-208.14s234.31-165.07,238.56-163.58l7.63-1.32L1218,217.8c-53.26,13.37-110.57,32.4-151.55,58.46C966.9,339.58,870.9,504.83,870.9,504.83L952.49,613s1.74-.57,5-1.7Z" transform="translate(-4.9)"/><path class="cls-5" d="M1022.12,401.49s-71.23,77.28-90.58,107.79c0,0-107.67-43.71-147.18-31S642,595.27,642,595.27l-15.93-21.12S689.4,384.45,823.19,354,1022.12,401.49,1022.12,401.49Z" transform="translate(-4.9)"/><path class="cls-6" d="M1022.12,401.49s-1.18-1.41-3.52-3.75c0,.05-72.68,89.3-122.35,82.62s-97.18-37.46-141-5.2-101.9,94.19-125,87.63c-2.81,7.19-4.2,11.36-4.2,11.36L642,595.27S744.85,491,784.36,478.29s147.18,31,147.18,31C950.89,478.77,1022.12,401.49,1022.12,401.49Z" transform="translate(-4.9)"/><path class="cls-5" d="M1193.7,220.88s78.39,60.08,108.74,128.64c0,0,67.41-101.7,63.62-161.47C1366.06,188.05,1256.53,196.94,1193.7,220.88Z" transform="translate(-4.9)"/><path class="cls-6" d="M1366.06,188.05s-109.53,8.89-172.36,32.83a475.61,475.61,0,0,1,44,39.6h0c20.24-25.59,127.24-51.92,126.94-49.55A102.28,102.28,0,0,0,1366.06,188.05Z" transform="translate(-4.9)"/><path class="cls-13" d="M935.63,591l-.26-.9c.54-.15,54.54-15.64,125-55.62,65-36.89,157.75-102.76,230.28-207.11l.77.53a669.73,669.73,0,0,1-114.91,126.46,741,741,0,0,1-115.7,80.95C990.25,575.29,936.17,590.8,935.63,591Z" transform="translate(-4.9)"/><path class="cls-12" d="M572.59,789.38s20.48-68.64,68.13-120.26,115.84-58.22,146-9.24c31.5,51.22,6.1,113.21-60.81,136.44C683.69,811,595.18,810.79,595.18,810.79s30.11-8.84,37-21.4c0,0-38.36.17-65.86,24.77,0,0,34.57-42.69,56.85-56.47C623.14,757.69,595.78,755.85,572.59,789.38Z" transform="translate(-4.9)"/><path class="cls-18" d="M764,673.13c-15.68-22.34-58.34-21.91-88,12.34-26.16,30.26-31.67,76.22-31.67,76.22s57.09,14.45,97.41-14.09C772.55,725.79,776.64,691.22,764,673.13Z" transform="translate(-4.9)"/><path class="cls-2" d="M509.85,584.1l42.94-15.94-28.07,40.26,16.58,25.67L509,626.56l-25.94,30.7,4-41s-60.08-4-56.05-6,53.25-16.58,53.25-16.58l1.18-43.15Z" transform="translate(-4.9)"/><path class="cls-2" d="M1463,438.94l46.47,63-65.1-31.68-26.07,69-12.68-74.59-80.33-7.82,76.12-32.47s-27.6-77.84-21.86-73,54.69,56.88,54.69,56.88l63.47-28.12Z" transform="translate(-4.9)"/><path class="cls-19" d="M1625.32,335.36l-32.92-24.85,40.37,4.24,8.63-35.62,11.19,33.61,36.09.71-30.89,20.45,31.3,32.28c-3.69-1.67-45.48-17.53-45.48-17.53l-32.56,26.85Z" transform="translate(-4.9)"/><path class="cls-19" d="M1632.18,548.12,1642,540l.39,11.61,10.15,4.3-11.17,4.3-1.51,14.42-7.13-13.06s-14.26,7.46-13.47,6,8-12.21,8-12.21L1620.45,545Z" transform="translate(-4.9)"/><path class="cls-19" d="M1278.52,567.34l16-10.63-1.24,17.46,14.53,8-17.41,4.7-4.54,21.37-8.63-20.7s-22.55,8.93-21.13,6.92,14-17,14-17l-8.67-16.73Z" transform="translate(-4.9)"/><path class="cls-19" d="M1451.12,677.85l2.74-35.2L1467,671.78l33.62-11.5-24,25,25.76,34.14-35.14-16.79s-18.85,37.65-19.34,33.42,5.48-39,5.48-39l-37.69-10.84Z" transform="translate(-4.9)"/><path class="cls-2" d="M270,360.55l-20.92-71.72,54.75,51,51.75-30.57L325.8,362.86,381,402.59l-71.6-12.1S295,464.59,292.89,459s-13.67-67.71-13.67-67.71l-62.33-1.05Z" transform="translate(-4.9)"/><path class="cls-2" d="M1192.49,768.68l-19.61-61.94L1221.49,750l44.38-27.6L1241,769.59,1289.76,803l-62.48-9.12s-11,64.71-13,59.91-13.22-58.58-13.22-58.58l-54.2.31Z" transform="translate(-4.9)"/><path class="cls-19" d="M492.14,840.29l-9.85-6.5,10.17-3.49,1.06-10.14,6.83,8.71,13.17-2.56-9.63,9.84s10.46,10.6,9,10.28-13-3.81-13-3.81l-7.37,8.92Z" transform="translate(-4.9)"/><path class="cls-19" d="M614.18,350.75l-8.37-5.53,8.64-3,.9-8.63,5.81,7.41,11.2-2.18-8.18,8.38s8.89,9,7.64,8.74-11.05-3.24-11.05-3.24l-6.27,7.58Z" transform="translate(-4.9)"/><path class="cls-2" d="M332,764.09l-8.2-9.45,11.38-.67,4-10.06,4.49,10.85,14.18,1.14-12.64,7.31s7.66,13.81,6.25,13.06-12.18-7.59-12.18-7.59l-10.07,7Z" transform="translate(-4.9)"/><path class="cls-19" d="M280.22,609.08,266.3,589.24l22.05,1L298,571.65l6.49,21.79,27.08,5L305.78,610s12,28.1,9.42,26.39-21.93-17-21.93-17l-20.79,11.47Z" transform="translate(-4.9)"/><path class="cls-19" d="M490.31,342.77l-4.89-29.34,23.88,12.79,20.54-15.45-4.37,27.56,27.32,19.91-34.68-.88s-1.64,37.48-3.57,34.22-15.23-30.51-15.23-30.51l-29.11,1.68Z" transform="translate(-4.9)"/></g></g></svg>